<svg width="520" height="260" viewBox="0 0 520 260" xmlns="http://www.w3.org/2000/svg">
  <defs>
    <linearGradient id="hero-bg" x1="0%" y1="0%" x2="100%" y2="100%">
      <stop offset="0%" stop-color="#020617"/>
      <stop offset="50%" stop-color="#020617"/>
      <stop offset="100%" stop-color="#030712"/>
    </linearGradient>
    <linearGradient id="hero-glow" x1="0%" y1="0%" x2="100%" y2="0%">
      <stop offset="0%" stop-color="#6366f1"/>
      <stop offset="50%" stop-color="#ec4899"/>
      <stop offset="100%" stop-color="#f97316"/>
    </linearGradient>
  </defs>

  <rect x="0" y="0" width="520" height="260" rx="24" fill="url(#hero-bg)"/>

  <rect x="40" y="60" width="440" height="140" rx="24" fill="#020617" stroke="url(#hero-glow)" stroke-width="2.5"/>

  <g fill="#020617" stroke="#1f2937" stroke-width="1.5">
    <rect x="64" y="84" width="40" height="32" rx="6"/>
    <rect x="112" y="84" width="40" height="32" rx="6"/>
    <rect x="160" y="84" width="40" height="32" rx="6"/>
    <rect x="208" y="84" width="40" height="32" rx="6"/>
    <rect x="256" y="84" width="40" height="32" rx="6"/>
    <rect x="304" y="84" width="40" height="32" rx="6"/>
    <rect x="352" y="84" width="40" height="32" rx="6"/>
    <rect x="400" y="84" width="40" height="32" rx="6"/>

    <rect x="76" y="128" width="40" height="32" rx="6"/>
    <rect x="132" y="128" width="40" height="32" rx="6"/>
    <rect x="188" y="128" width="40" height="32" rx="6"/>
    <rect x="244" y="128" width="40" height="32" rx="6"/>
    <rect x="300" y="128" width="40" height="32" rx="6"/>
    <rect x="356" y="128" width="40" height="32" rx="6"/>
  </g>

  <rect x="112" y="196" width="296" height="8" rx="4" fill="url(#hero-glow)" opacity="0.8"/>

  <path d="M118 114 Q 144 60 204 60" fill="none" stroke="url(#hero-glow)" stroke-width="2" stroke-dasharray="4 6" opacity="0.7"/>
  <path d="M330 60 Q 380 60 406 114" fill="none" stroke="url(#hero-glow)" stroke-width="2" stroke-dasharray="4 6" opacity="0.7"/>

  <circle cx="204" cy="60" r="5" fill="#6366f1"/>
  <circle cx="330" cy="60" r="5" fill="#f97316"/>

  <text x="60" y="40" fill="#e5e7eb" font-size="14" font-family="system-ui, -apple-system, BlinkMacSystemFont, 'Segoe UI', sans-serif" opacity="0.9">
    让快捷键成为你的「超能力」。
  </text>
  <text x="60" y="56" fill="#9ca3af" font-size="12" font-family="system-ui, -apple-system, BlinkMacSystemFont, 'Segoe UI', sans-serif">
    keymaster · React / Vue / Docs
  </text>
</svg>


